<svg width="19" height="13" viewBox="0 0 19 13" fill="none" xmlns="http://www.w3.org/2000/svg">
<path d="M9.50001 10.3636C10.5796 10.3636 11.4972 9.98581 12.2529 9.23012C13.0085 8.47444 13.3864 7.55683 13.3864 6.47728C13.3864 5.39773 13.0085 4.48012 12.2529 3.72444C11.4972 2.96875 10.5796 2.59091 9.50001 2.59091C8.42046 2.59091 7.50285 2.96875 6.74717 3.72444C5.99148 4.48012 5.61364 5.39773 5.61364 6.47728C5.61364 7.55683 5.99148 8.47444 6.74717 9.23012C7.50285 9.98581 8.42046 10.3636 9.50001 10.3636ZM9.50001 8.8091C8.85228 8.8091 8.30171 8.5824 7.8483 8.12899C7.39489 7.67558 7.16819 7.12501 7.16819 6.47728C7.16819 5.82955 7.39489 5.27898 7.8483 4.82557C8.30171 4.37216 8.85228 4.14546 9.50001 4.14546C10.1477 4.14546 10.6983 4.37216 11.1517 4.82557C11.6051 5.27898 11.8318 5.82955 11.8318 6.47728C11.8318 7.12501 11.6051 7.67558 11.1517 8.12899C10.6983 8.5824 10.1477 8.8091 9.50001 8.8091ZM9.50001 12.9546C7.39849 12.9546 5.4841 12.368 3.75682 11.1949C2.02955 10.0218 0.777274 8.44925 0 6.47728C0.777274 4.50531 2.02955 2.93277 3.75682 1.75966C5.4841 0.586554 7.39849 0 9.50001 0C11.6015 0 13.5159 0.586554 15.2432 1.75966C16.9705 2.93277 18.2227 4.50531 19 6.47728C18.2227 8.44925 16.9705 10.0218 15.2432 11.1949C13.5159 12.368 11.6015 12.9546 9.50001 12.9546ZM9.50001 11.2273C11.1265 11.2273 12.6199 10.7991 13.9801 9.94262C15.3404 9.08618 16.3803 7.93107 17.1 6.47728C16.3803 5.02349 15.3404 3.86838 13.9801 3.01194C12.6199 2.15549 11.1265 1.72727 9.50001 1.72727C7.87349 1.72727 6.38012 2.15549 5.01989 3.01194C3.65966 3.86838 2.6197 5.02349 1.9 6.47728C2.6197 7.93107 3.65966 9.08618 5.01989 9.94262C6.38012 10.7991 7.87349 11.2273 9.50001 11.2273Z" fill="#D5C4AB"/>
</svg>
